<svg id="Capa_1" data-name="Capa 1" xmlns="http://www.w3.org/2000/svg" viewBox="0 0 429.73 461.84"><defs><style>.cls-1{fill:#e3ab22;}.cls-2{fill:#2d475e;}</style></defs><title>OnMove</title><path class="cls-1" d="M229.56,273.6l39.9-93.78a3.19,3.19,0,0,1,2.93-1.93h25.43a3.18,3.18,0,0,1,3.18,3.18V313.82a3.18,3.18,0,0,1-3.18,3.18H276.64a3.18,3.18,0,0,1-3.18-3.18V250.08a3.18,3.18,0,0,0-6.11-1.25L239,315.07a3.18,3.18,0,0,1-2.92,1.93H217.3a3.19,3.19,0,0,1-2.93-1.94q-23.66-55.6-47.32-111.22a3.18,3.18,0,0,1,2.73-4.42A29.06,29.06,0,0,1,191.42,207a32.24,32.24,0,0,1,8,12c4,9.57,9.31,18.59,13.18,28.23,2.59,6.44,6.28,15.41,11.12,26.41A3.18,3.18,0,0,0,229.56,273.6Z"/><path class="cls-2" d="M185.33,253.14h0c-8,4.11-18,4.81-28.22.06a26.66,26.66,0,0,1-13-13c-10.37-22.62,5.88-44.67,27.28-44.67a36,36,0,0,1,8.89,1.31,28.33,28.33,0,0,1,9.61,4.69,26.08,26.08,0,0,1,6.51,6.5,24.62,24.62,0,0,1,1.5,2.5c3.09,5.9,19.38,41.81,21.5,46.49a71.33,71.33,0,0,0,4-11,79.36,79.36,0,0,0,2.5-20.5c-.34-9.77-5.42-19.5-8.12-23.91-2.09-3.42-18.2-28.82-45.89-29.08-30.72-.29-54,30.57-54,53,0,.68,0,1.35,0,2l0,0s0,.51.11,1.46v0a53,53,0,0,0,1.1,7.72A139.11,139.11,0,0,0,168.43,319s3,3,8,0c2.58-1.55,14.25-12.41,25.49-28.11Z"/></svg>