<svg id="Capa_1" data-name="Capa 1" xmlns="http://www.w3.org/2000/svg" viewBox="0 0 429.73 461.84"><defs><style>.cls-1{fill:#e3ab22;}.cls-2{fill:#2d475e;}</style></defs><title>OnMove</title><path class="cls-1" d="M223.21,250.6l39.91-93.78a3.18,3.18,0,0,1,2.93-1.93h25.43a3.18,3.18,0,0,1,3.18,3.18V290.82a3.18,3.18,0,0,1-3.18,3.18H270.3a3.18,3.18,0,0,1-3.19-3.18V227.08a3.18,3.18,0,0,0-6.1-1.25l-28.34,66.24a3.19,3.19,0,0,1-2.93,1.93H211a3.18,3.18,0,0,1-2.93-1.94L160.71,180.84a3.17,3.17,0,0,1,2.72-4.42A29.07,29.07,0,0,1,185.08,184a32.37,32.37,0,0,1,8,12c4,9.57,9.3,18.59,13.18,28.23,2.59,6.44,6.28,15.41,11.11,26.41A3.18,3.18,0,0,0,223.21,250.6Z"/><path class="cls-2" d="M179,230.14h0c-8,4.11-18,4.81-28.22.06a26.7,26.7,0,0,1-13-13c-10.36-22.62,5.89-44.67,27.29-44.67a36,36,0,0,1,8.88,1.31,28.34,28.34,0,0,1,9.62,4.69,26.08,26.08,0,0,1,6.5,6.5,22.88,22.88,0,0,1,1.5,2.5c3.09,5.9,19.38,41.81,21.51,46.49a71.33,71.33,0,0,0,4-11,79.59,79.59,0,0,0,2.49-20.5c-.34-9.77-5.42-19.5-8.11-23.91-2.1-3.42-18.21-28.82-45.89-29.08-30.73-.29-54,30.57-54,53,0,.68,0,1.35.05,2l-.05,0s0,.51.12,1.46v0a51.63,51.63,0,0,0,1.1,7.72A139.14,139.14,0,0,0,162.08,296s3,3,8,0c2.58-1.55,14.26-12.41,25.5-28.11Z"/><path class="cls-2" d="M129.22,324.19l1.32-6.88A10.17,10.17,0,0,1,134,311q2.63-2.08,7.45-2.09h3.42q4.86,0,6.68,2.09t1,6.28l-1.32,6.88a10,10,0,0,1-3.44,6.25q-2.62,2.08-7.49,2.08h-3.42q-4.83,0-6.64-2.08T129.22,324.19Zm14.9-.22,1.15-5.93a4,4,0,0,0-.15-2.71c-.32-.53-1-.79-2.11-.79h-1.84a3.39,3.39,0,0,0-2.47.79,5,5,0,0,0-1.16,2.71l-1.06,5.42a4,4,0,0,0,.15,2.69c.32.54,1,.81,2.11.81h1.84A3.3,3.3,0,0,0,144.12,324Z"/><path class="cls-2" d="M161.42,332.13h-7.14l4.23-21.91a44.85,44.85,0,0,1,11-1.28h1.54q8.63,0,7.09,8l-2.95,15.16h-7.13l2.77-14.43q.6-2.86-2.34-2.87h-1a20,20,0,0,0-2.82.26Z"/><path class="cls-2" d="M187.49,332.13h-3.16L188.6,310a42.14,42.14,0,0,1,8.5-.94h1a8.41,8.41,0,0,1,5,1.24,31.55,31.55,0,0,1,8.2-1.24H212q4.1,0,5.81,2t1,5.87l-3,15.16h-3.16l2.91-15a4.77,4.77,0,0,0-.52-3.93q-1-1.32-3.84-1.32h-1.11a22.76,22.76,0,0,0-5.47.68,9,9,0,0,1,0,4.14l-3,15.42h-3.16l3-15.25c.34-1.73.21-3-.41-3.8s-1.85-1.19-3.73-1.19H196a39.24,39.24,0,0,0-4.61.34Z"/><path class="cls-2" d="M223.45,324.49,225,317a9.64,9.64,0,0,1,3.2-5.85,10,10,0,0,1,6.58-2.05h4.18q4.09,0,5.81,2t1,5.87l-1.49,7.52a9.62,9.62,0,0,1-3.23,5.85,10.09,10.09,0,0,1-6.6,2.05H230.2c-2.73,0-4.66-.69-5.79-2.05S223,327,223.45,324.49Zm17.64-.17,1.41-7.18a4.81,4.81,0,0,0-.51-3.93c-.69-.88-2-1.32-3.85-1.32h-3.67c-3.62,0-5.75,1.75-6.41,5.25l-1.41,7.18a4.77,4.77,0,0,0,.52,3.93q1,1.32,3.84,1.32h3.67C238.3,329.57,240.43,327.82,241.09,324.32Z"/><path class="cls-2" d="M253.86,309.33l4.1,19.6,11.7-19.6H273l-13.54,22.8h-4.1l-4.74-22.8Z"/><path class="cls-2" d="M294.47,317l-1,5.21h-16.4l-.43,2.14a4.81,4.81,0,0,0,.51,3.93c.69.88,2,1.32,3.85,1.32h10l-.43,2.31a59.28,59.28,0,0,1-8.33.51h-2c-2.73,0-4.66-.69-5.78-2.05s-1.45-3.32-1-5.85l1.49-7.52a9.69,9.69,0,0,1,3.2-5.85,10,10,0,0,1,6.58-2.05h3q4.1,0,5.81,2C294.63,312.45,295,314.41,294.47,317Zm-16.44.17-.43,2.22h13.24l.43-2.22a4.81,4.81,0,0,0-.51-3.93c-.69-.88-2-1.32-3.85-1.32h-2.47Q279,311.89,278,317.14Z"/></svg>