<svg id="Capa_1" data-name="Capa 1" xmlns="http://www.w3.org/2000/svg" viewBox="0 0 429.73 461.84"><defs><style>.cls-1{fill:#3b3e43;}</style></defs><title>OnMove</title><path class="cls-1" d="M234.94,250.6l39.91-93.78a3.18,3.18,0,0,1,2.93-1.93h25.43a3.18,3.18,0,0,1,3.18,3.18V290.82a3.18,3.18,0,0,1-3.18,3.18H282a3.18,3.18,0,0,1-3.18-3.18V227.08a3.18,3.18,0,0,0-6.11-1.25L244.4,292.07a3.18,3.18,0,0,1-2.93,1.93H222.69a3.18,3.18,0,0,1-2.93-1.94L172.44,180.84a3.17,3.17,0,0,1,2.72-4.42A29.07,29.07,0,0,1,196.81,184a32.37,32.37,0,0,1,8,12c4,9.57,9.31,18.59,13.18,28.23,2.59,6.44,6.28,15.41,11.12,26.41A3.17,3.17,0,0,0,234.94,250.6Z"/><path class="cls-1" d="M190.71,230.14h0c-8,4.11-18,4.81-28.22.06a26.74,26.74,0,0,1-13-13c-10.36-22.62,5.89-44.67,27.29-44.67a35.92,35.92,0,0,1,8.88,1.31,28.25,28.25,0,0,1,9.62,4.69,26.08,26.08,0,0,1,6.5,6.5,22.88,22.88,0,0,1,1.5,2.5c3.09,5.9,19.39,41.81,21.51,46.49a71.33,71.33,0,0,0,4-11,79.1,79.1,0,0,0,2.49-20.5c-.34-9.77-5.42-19.5-8.11-23.91-2.1-3.42-18.2-28.82-45.89-29.08-30.72-.29-54,30.57-54,53,0,.68,0,1.35,0,2l0,0s0,.51.12,1.46v0a51.63,51.63,0,0,0,1.1,7.72A139.11,139.11,0,0,0,173.82,296s3,3,8,0c2.57-1.55,14.25-12.41,25.49-28.11Q199,249,190.71,230.14Z"/><path class="cls-1" d="M141,324.19l1.32-6.88a10.17,10.17,0,0,1,3.44-6.28q2.63-2.08,7.45-2.09h3.42q4.86,0,6.68,2.09t1,6.28l-1.33,6.88a10,10,0,0,1-3.44,6.25q-2.62,2.08-7.49,2.08h-3.42c-3.21,0-5.43-.69-6.64-2.08S140.41,327,141,324.19Zm14.9-.22L157,318a4.17,4.17,0,0,0-.15-2.71c-.33-.53-1-.79-2.12-.79h-1.83a3.42,3.42,0,0,0-2.48.79,4.9,4.9,0,0,0-1.15,2.71l-1.07,5.42a4,4,0,0,0,.15,2.69c.32.54,1,.81,2.11.81h1.84A3.3,3.3,0,0,0,155.85,324Z"/><path class="cls-1" d="M173.15,332.13H166l4.22-21.91a44.85,44.85,0,0,1,11-1.28h1.54q8.63,0,7.09,8l-2.95,15.16h-7.13l2.78-14.43q.58-2.86-2.35-2.87h-1a19.7,19.7,0,0,0-2.81.26Z"/><path class="cls-1" d="M199.23,332.13h-3.16L200.34,310a42,42,0,0,1,8.49-.94h1a8.41,8.41,0,0,1,5,1.24,31.55,31.55,0,0,1,8.2-1.24h.73q4.09,0,5.81,2t1,5.87l-2.95,15.16h-3.16l2.91-15a4.77,4.77,0,0,0-.52-3.93q-1-1.32-3.84-1.32h-1.11a22.76,22.76,0,0,0-5.47.68,9,9,0,0,1,0,4.14l-3,15.42h-3.16l2.95-15.25c.34-1.73.21-3-.41-3.8s-1.85-1.19-3.73-1.19h-1.37a39.39,39.39,0,0,0-4.61.34Z"/><path class="cls-1" d="M235.18,324.49l1.5-7.52a9.64,9.64,0,0,1,3.2-5.85,10,10,0,0,1,6.58-2.05h4.18c2.74,0,4.67.68,5.81,2s1.47,3.31,1,5.87l-1.49,7.52a9.62,9.62,0,0,1-3.23,5.85,10.08,10.08,0,0,1-6.59,2.05h-4.19c-2.73,0-4.66-.69-5.79-2.05S234.7,327,235.18,324.49Zm17.64-.17,1.41-7.18a4.81,4.81,0,0,0-.51-3.93c-.69-.88-2-1.32-3.85-1.32H246.2c-3.61,0-5.75,1.75-6.4,5.25l-1.41,7.18a4.77,4.77,0,0,0,.51,3.93q1,1.32,3.84,1.32h3.67Q251.84,329.57,252.82,324.32Z"/><path class="cls-1" d="M265.59,309.33l4.1,19.6,11.7-19.6h3.29l-13.54,22.8H267l-4.74-22.8Z"/><path class="cls-1" d="M306.2,317l-1,5.21h-16.4l-.43,2.14a4.81,4.81,0,0,0,.51,3.93c.69.88,2,1.32,3.85,1.32h10l-.43,2.31a59.23,59.23,0,0,1-8.32.51H291.9c-2.74,0-4.67-.69-5.79-2.05s-1.45-3.32-1-5.85l1.49-7.52a9.65,9.65,0,0,1,3.21-5.85,10,10,0,0,1,6.57-2.05h3q4.09,0,5.81,2T306.2,317Zm-16.44.17-.43,2.22h13.24l.43-2.22a4.81,4.81,0,0,0-.51-3.93c-.69-.88-2-1.32-3.85-1.32h-2.47C292.55,311.89,290.42,313.64,289.76,317.14Z"/></svg>