<svg id="Capa_1" data-name="Capa 1" xmlns="http://www.w3.org/2000/svg" viewBox="0 0 429.73 461.84"><defs><style>.cls-1{fill:#e2a622;}</style></defs><title>OnMove</title><path class="cls-1" d="M234.68,256.6l39.9-93.78a3.18,3.18,0,0,1,2.93-1.93h25.43a3.18,3.18,0,0,1,3.18,3.18V296.82a3.18,3.18,0,0,1-3.18,3.18H281.76a3.18,3.18,0,0,1-3.18-3.18V233.08a3.18,3.18,0,0,0-6.11-1.25l-28.34,66.24A3.18,3.18,0,0,1,241.2,300H222.42a3.18,3.18,0,0,1-2.93-1.94q-23.66-55.6-47.32-111.22a3.18,3.18,0,0,1,2.73-4.42A29.06,29.06,0,0,1,196.54,190a32.37,32.37,0,0,1,8,12c4,9.57,9.31,18.59,13.18,28.23,2.59,6.44,6.28,15.41,11.12,26.41A3.18,3.18,0,0,0,234.68,256.6Z"/><path class="cls-1" d="M190.45,236.14h0c-8,4.11-18,4.81-28.23.06a26.74,26.74,0,0,1-13-13c-10.36-22.62,5.89-44.67,27.29-44.67a36,36,0,0,1,8.89,1.31A28.33,28.33,0,0,1,195,184.5a26.08,26.08,0,0,1,6.5,6.5,22.88,22.88,0,0,1,1.5,2.5c3.1,5.9,19.39,41.81,21.51,46.49a71.33,71.33,0,0,0,4-11,79.36,79.36,0,0,0,2.5-20.5c-.35-9.77-5.43-19.5-8.12-23.91-2.1-3.42-18.2-28.82-45.89-29.08-30.72-.29-54,30.57-54,53,0,.68,0,1.35,0,2l0,0s0,.51.11,1.46v0a53,53,0,0,0,1.1,7.72A139.11,139.11,0,0,0,173.55,302s3,3,8,0c2.58-1.55,14.25-12.41,25.49-28.11Z"/><path class="cls-1" d="M140.68,330.19l1.32-6.88a10.17,10.17,0,0,1,3.44-6.28c1.75-1.39,4.24-2.09,7.45-2.09h3.42q4.86,0,6.68,2.09t1,6.28l-1.33,6.88a10,10,0,0,1-3.44,6.25c-1.75,1.39-4.24,2.08-7.49,2.08h-3.42c-3.21,0-5.43-.69-6.64-2.08S140.14,333,140.68,330.19Zm14.9-.22,1.16-5.93a4.17,4.17,0,0,0-.15-2.71c-.33-.53-1-.79-2.12-.79h-1.83a3.42,3.42,0,0,0-2.48.79A4.9,4.9,0,0,0,149,324l-1.07,5.42a4,4,0,0,0,.15,2.69c.33.54,1,.81,2.11.81H152A3.3,3.3,0,0,0,155.58,330Z"/><path class="cls-1" d="M172.88,338.13h-7.13L170,316.22a44.91,44.91,0,0,1,11-1.28h1.54q8.63,0,7.09,8l-3,15.16h-7.13l2.78-14.43q.59-2.86-2.35-2.87h-1a19.7,19.7,0,0,0-2.82.26Z"/><path class="cls-1" d="M199,338.13H195.8L200.07,316a42.06,42.06,0,0,1,8.5-.94h1a8.39,8.39,0,0,1,5,1.24,31.55,31.55,0,0,1,8.2-1.24h.73q4.09,0,5.81,2c1.14,1.35,1.46,3.31,1,5.87l-2.95,15.16h-3.16l2.91-15a4.77,4.77,0,0,0-.52-3.93q-1-1.32-3.84-1.32h-1.11a22.82,22.82,0,0,0-5.47.68,9,9,0,0,1,0,4.14l-3,15.42H210l2.95-15.25c.34-1.73.21-3-.4-3.8s-1.86-1.19-3.74-1.19h-1.37a39.39,39.39,0,0,0-4.61.34Z"/><path class="cls-1" d="M234.91,330.49l1.5-7.52a9.64,9.64,0,0,1,3.2-5.85,10,10,0,0,1,6.58-2.05h4.18c2.74,0,4.67.68,5.81,2s1.47,3.31,1,5.87l-1.49,7.52a9.62,9.62,0,0,1-3.23,5.85,10.08,10.08,0,0,1-6.59,2.05h-4.19c-2.73,0-4.66-.69-5.78-2.05S234.43,333,234.91,330.49Zm17.64-.17,1.41-7.18a4.81,4.81,0,0,0-.51-3.93c-.69-.88-2-1.32-3.85-1.32h-3.67c-3.61,0-5.75,1.75-6.4,5.25l-1.41,7.18a4.81,4.81,0,0,0,.51,3.93q1,1.32,3.84,1.32h3.68C249.76,335.57,251.9,333.82,252.55,330.32Z"/><path class="cls-1" d="M265.32,315.33l4.1,19.6,11.7-19.6h3.29l-13.54,22.8h-4.1L262,315.33Z"/><path class="cls-1" d="M305.93,323l-1,5.21h-16.4l-.43,2.14a4.81,4.81,0,0,0,.51,3.93c.69.88,2,1.32,3.85,1.32h10l-.43,2.31a59.23,59.23,0,0,1-8.32.51h-2.05c-2.74,0-4.67-.69-5.79-2.05s-1.44-3.32-1-5.85l1.49-7.52a9.7,9.7,0,0,1,3.21-5.85,10,10,0,0,1,6.57-2.05h3c2.74,0,4.67.68,5.81,2S306.42,320.41,305.93,323Zm-16.44.17-.42,2.22H302.3l.43-2.22a4.81,4.81,0,0,0-.51-3.93c-.69-.88-2-1.32-3.85-1.32H295.9C292.28,317.89,290.15,319.64,289.49,323.14Z"/></svg>