<svg id="Capa_1" data-name="Capa 1" xmlns="http://www.w3.org/2000/svg" viewBox="0 0 429.73 461.84"><defs><style>.cls-1{fill:#2d475e;}</style></defs><title>OnMove</title><path class="cls-1" d="M241.75,279.6l39.91-93.78a3.18,3.18,0,0,1,2.92-1.93H310a3.18,3.18,0,0,1,3.18,3.18V319.82A3.18,3.18,0,0,1,310,323H288.83a3.18,3.18,0,0,1-3.18-3.18V256.08a3.18,3.18,0,0,0-6.1-1.25L251.2,321.07a3.18,3.18,0,0,1-2.92,1.93H229.49a3.17,3.17,0,0,1-2.92-1.94q-23.67-55.6-47.32-111.22a3.17,3.17,0,0,1,2.72-4.42A29.06,29.06,0,0,1,203.61,213a32.24,32.24,0,0,1,8,12c4,9.57,9.31,18.59,13.18,28.23,2.59,6.44,6.29,15.41,11.12,26.41A3.18,3.18,0,0,0,241.75,279.6Z"/><path class="cls-1" d="M197.52,259.14h0c-8,4.11-18,4.81-28.22.06a26.7,26.7,0,0,1-13-13C146,223.55,162.2,201.5,183.61,201.5a36,36,0,0,1,8.88,1.31,28.34,28.34,0,0,1,9.62,4.69,26.25,26.25,0,0,1,6.5,6.5,24.62,24.62,0,0,1,1.5,2.5c3.09,5.9,19.38,41.81,21.5,46.49a69.29,69.29,0,0,0,4-11,79.36,79.36,0,0,0,2.5-20.5c-.34-9.77-5.42-19.5-8.12-23.91-2.09-3.42-18.2-28.82-45.89-29.08-30.72-.29-54,30.57-54,53,0,.68,0,1.35,0,2l0,0s0,.51.12,1.46v0a50.37,50.37,0,0,0,1.1,7.72A139.08,139.08,0,0,0,180.62,325s3,3,8,0c2.58-1.55,14.26-12.41,25.5-28.11Q205.81,278,197.52,259.14Z"/></svg>