<svg id="Capa_1" data-name="Capa 1" xmlns="http://www.w3.org/2000/svg" viewBox="0 0 429.73 461.84"><defs><style>.cls-1{fill:#f4fafa;}</style></defs><title>OnMove</title><path class="cls-1" d="M234.14,253.6,274,159.82a3.19,3.19,0,0,1,2.93-1.93H302.4a3.18,3.18,0,0,1,3.18,3.18V293.82A3.18,3.18,0,0,1,302.4,297H281.22a3.18,3.18,0,0,1-3.18-3.18V230.08a3.18,3.18,0,0,0-6.11-1.25l-28.34,66.24a3.18,3.18,0,0,1-2.92,1.93H221.88a3.19,3.19,0,0,1-2.93-1.94q-23.65-55.6-47.32-111.22a3.18,3.18,0,0,1,2.73-4.42A29.06,29.06,0,0,1,196,187a32.24,32.24,0,0,1,8,12c4,9.57,9.31,18.59,13.18,28.23,2.59,6.44,6.28,15.41,11.12,26.41A3.18,3.18,0,0,0,234.14,253.6Z"/><path class="cls-1" d="M189.91,233.14h0c-8,4.11-18,4.81-28.22.06a26.66,26.66,0,0,1-13-13c-10.37-22.62,5.88-44.67,27.28-44.67a36,36,0,0,1,8.89,1.31,28.33,28.33,0,0,1,9.61,4.69A26.08,26.08,0,0,1,201,188a24.62,24.62,0,0,1,1.5,2.5c3.09,5.9,19.38,41.81,21.5,46.49a71.33,71.33,0,0,0,4-11,79.36,79.36,0,0,0,2.5-20.5c-.34-9.77-5.42-19.5-8.12-23.91-2.09-3.42-18.2-28.82-45.89-29.08-30.72-.29-54,30.57-54,53,0,.68,0,1.35,0,2l0,0s0,.51.11,1.46v0a53,53,0,0,0,1.1,7.72A139.11,139.11,0,0,0,173,299s3,3,8,0c2.58-1.55,14.25-12.41,25.49-28.11Z"/><path class="cls-1" d="M140.14,327.19l1.33-6.88A10.16,10.16,0,0,1,144.9,314c1.75-1.39,4.24-2.09,7.45-2.09h3.42c3.25,0,5.47.7,6.69,2.09s1.54,3.49,1,6.28l-1.33,6.88a10,10,0,0,1-3.43,6.25q-2.62,2.08-7.5,2.08h-3.41c-3.22,0-5.44-.69-6.64-2.08S139.6,330,140.14,327.19Zm14.91-.22L156.2,321a4,4,0,0,0-.15-2.71c-.33-.53-1-.79-2.11-.79H152.1a3.42,3.42,0,0,0-2.48.79,5,5,0,0,0-1.15,2.71l-1.07,5.42a4,4,0,0,0,.15,2.69c.33.54,1,.81,2.11.81h1.84A3.3,3.3,0,0,0,155.05,327Z"/><path class="cls-1" d="M172.34,335.13h-7.13l4.23-21.91a44.83,44.83,0,0,1,11-1.28H182q8.63,0,7.09,8l-3,15.16H179l2.78-14.43c.4-1.91-.39-2.87-2.35-2.87h-1a20,20,0,0,0-2.82.26Z"/><path class="cls-1" d="M198.42,335.13h-3.16L199.53,313a42.14,42.14,0,0,1,8.5-.94h1a8.44,8.44,0,0,1,5,1.24,31.49,31.49,0,0,1,8.2-1.24h.72c2.74,0,4.67.68,5.81,2s1.47,3.31,1,5.87l-2.94,15.16h-3.16l2.9-15a4.81,4.81,0,0,0-.51-3.93c-.69-.88-2-1.32-3.85-1.32h-1.11a22.68,22.68,0,0,0-5.46.68,9.25,9.25,0,0,1,0,4.14l-3,15.42h-3.16l2.94-15.25c.35-1.73.21-3-.4-3.8s-1.86-1.19-3.74-1.19h-1.37a39.39,39.39,0,0,0-4.61.34Z"/><path class="cls-1" d="M234.38,327.49l1.49-7.52a9.69,9.69,0,0,1,3.2-5.85,10,10,0,0,1,6.58-2.05h4.19q4.09,0,5.8,2t1,5.87l-1.5,7.52a9.61,9.61,0,0,1-3.22,5.85,10.13,10.13,0,0,1-6.6,2.05h-4.19c-2.73,0-4.66-.69-5.78-2.05S233.89,330,234.38,327.49Zm17.63-.17,1.41-7.18a4.81,4.81,0,0,0-.51-3.93q-1-1.32-3.84-1.32h-3.68c-3.61,0-5.75,1.75-6.4,5.25l-1.41,7.18a4.81,4.81,0,0,0,.51,3.93c.69.88,2,1.32,3.85,1.32h3.67C249.22,332.57,251.36,330.82,252,327.32Z"/><path class="cls-1" d="M264.78,312.33l4.1,19.6,11.7-19.6h3.29l-13.54,22.8h-4.1l-4.74-22.8Z"/><path class="cls-1" d="M305.4,320l-1,5.21H288l-.43,2.14a4.77,4.77,0,0,0,.52,3.93q1,1.32,3.84,1.32h10l-.42,2.31a59.38,59.38,0,0,1-8.33.51h-2.05c-2.73,0-4.66-.69-5.79-2.05s-1.44-3.32-1-5.85l1.5-7.52a9.64,9.64,0,0,1,3.2-5.85,10,10,0,0,1,6.58-2.05h3q4.09,0,5.8,2T305.4,320Zm-16.45.17-.42,2.22h13.24l.42-2.22a4.81,4.81,0,0,0-.51-3.93q-1-1.32-3.84-1.32h-2.48C291.74,314.89,289.61,316.64,289,320.14Z"/></svg>