<svg id="Capa_1" data-name="Capa 1" xmlns="http://www.w3.org/2000/svg" viewBox="0 0 429.73 461.84"><defs><style>.cls-1{fill:#3b3e43;}</style></defs><title>OnMove</title><path class="cls-1" d="M72.17,261.76l2.29-11.89q1.41-7.25,6-10.87t12.89-3.62h5.91q8.43,0,11.57,3.62t1.74,10.87l-2.29,11.89q-1.41,7.25-6,10.83t-13,3.59H85.4q-8.36,0-11.49-3.59T72.17,261.76ZM98,261.4l2-10.28c.4-2.21.31-3.78-.25-4.69s-1.79-1.37-3.66-1.37H92.86a6,6,0,0,0-4.29,1.37,8.63,8.63,0,0,0-2,4.69l-1.85,9.39c-.39,2.17-.31,3.72.26,4.65s1.79,1.41,3.66,1.41h3.18C95.22,266.57,97.27,264.85,98,261.4Z"/><path class="cls-1" d="M127.89,275.51H115.55l7.31-37.91a77.18,77.18,0,0,1,19.07-2.22h2.66q14.92,0,12.26,13.9l-5.1,26.23H139.41l4.81-25q1-5-4.07-4.95h-1.7a33.53,33.53,0,0,0-4.87.45Z"/><path class="cls-1" d="M173,275.51h-5.47l7.39-38.28a73.6,73.6,0,0,1,14.71-1.62h1.7q5.68,0,8.64,2.14a54.78,54.78,0,0,1,14.19-2.14h1.26q7.09,0,10,3.51t1.7,10.16l-5.1,26.23h-5.47l5-25.94q.88-4.5-.89-6.8c-1.18-1.52-3.4-2.29-6.65-2.29h-1.92a38.74,38.74,0,0,0-9.46,1.19,15.88,15.88,0,0,1,0,7.16l-5.17,26.68h-5.47l5.1-26.38c.59-3,.35-5.2-.71-6.58s-3.21-2.07-6.46-2.07h-2.37a69.84,69.84,0,0,0-8,.59Z"/><path class="cls-1" d="M235.23,262.28l2.59-13a16.68,16.68,0,0,1,5.54-10.13q4.29-3.54,11.38-3.54H262q7.09,0,10,3.51t1.7,10.16l-2.59,13a16.53,16.53,0,0,1-5.58,10.13q-4.32,3.54-11.41,3.54h-7.24q-7.09,0-10-3.54T235.23,262.28Zm30.52-.29,2.44-12.42q.88-4.5-.89-6.8c-1.18-1.52-3.4-2.29-6.65-2.29H254.3q-9.39,0-11.09,9.09L240.77,262q-.89,4.5.89,6.8c1.18,1.52,3.4,2.29,6.65,2.29h6.36Q264,271.08,265.75,262Z"/><path class="cls-1" d="M287.85,236.05,294.94,270l20.25-33.92h5.69l-23.43,39.46h-7.09l-8.2-39.46Z"/><path class="cls-1" d="M358.12,249.28l-1.77,9H328l-.74,3.7q-.89,4.5.89,6.8c1.18,1.52,3.4,2.29,6.65,2.29h17.29l-.74,4a102.35,102.35,0,0,1-14.41.88h-3.54q-7.1,0-10-3.54t-1.66-10.13l2.59-13a16.63,16.63,0,0,1,5.54-10.13q4.28-3.54,11.38-3.54h5.17q7.1,0,10.05,3.51T358.12,249.28Zm-28.45.29-.74,3.85h22.91l.74-3.85q.89-4.5-.89-6.8c-1.18-1.52-3.4-2.29-6.65-2.29h-4.28Q331.37,240.48,329.67,249.57Z"/></svg>