<svg id="Capa_1" data-name="Capa 1" xmlns="http://www.w3.org/2000/svg" viewBox="0 0 429.73 461.84"><defs><style>.cls-1{fill:#2d475e;}</style></defs><title>OnMove</title><path class="cls-1" d="M235.41,256.6l39.9-93.78a3.18,3.18,0,0,1,2.93-1.93h25.43a3.18,3.18,0,0,1,3.18,3.18V296.82a3.18,3.18,0,0,1-3.18,3.18H282.49a3.18,3.18,0,0,1-3.18-3.18V233.08a3.18,3.18,0,0,0-6.11-1.25l-28.34,66.24a3.18,3.18,0,0,1-2.93,1.93H223.15a3.18,3.18,0,0,1-2.93-1.94q-23.65-55.6-47.32-111.22a3.18,3.18,0,0,1,2.73-4.42A29.06,29.06,0,0,1,197.27,190a32.24,32.24,0,0,1,8,12c4,9.57,9.31,18.59,13.18,28.23,2.59,6.44,6.28,15.41,11.12,26.41A3.18,3.18,0,0,0,235.41,256.6Z"/><path class="cls-1" d="M191.18,236.14h0c-8,4.11-18,4.81-28.23.06a26.74,26.74,0,0,1-13-13c-10.36-22.62,5.89-44.67,27.29-44.67a36,36,0,0,1,8.89,1.31,28.33,28.33,0,0,1,9.61,4.69,25.92,25.92,0,0,1,6.5,6.5,22.88,22.88,0,0,1,1.5,2.5c3.1,5.9,19.39,41.81,21.51,46.49a71.33,71.33,0,0,0,4-11,79.36,79.36,0,0,0,2.5-20.5c-.34-9.77-5.43-19.5-8.12-23.91-2.1-3.42-18.2-28.82-45.89-29.08-30.72-.29-54,30.57-54,53,0,.68,0,1.35,0,2l0,0s0,.51.11,1.46v0a53,53,0,0,0,1.1,7.72A139.11,139.11,0,0,0,174.28,302s3,3,8,0c2.58-1.55,14.25-12.41,25.49-28.11Z"/><path class="cls-1" d="M141.41,330.19l1.32-6.88a10.17,10.17,0,0,1,3.44-6.28c1.75-1.39,4.24-2.09,7.45-2.09H157c3.25,0,5.47.7,6.68,2.09s1.55,3.49,1,6.28l-1.33,6.88a10,10,0,0,1-3.43,6.25c-1.76,1.39-4.25,2.08-7.5,2.08h-3.42c-3.21,0-5.43-.69-6.64-2.08S140.87,333,141.41,330.19Zm14.9-.22,1.16-5.93a4.11,4.11,0,0,0-.15-2.71c-.33-.53-1-.79-2.12-.79h-1.83a3.42,3.42,0,0,0-2.48.79,5,5,0,0,0-1.15,2.71l-1.07,5.42a4,4,0,0,0,.15,2.69c.33.54,1,.81,2.11.81h1.84A3.29,3.29,0,0,0,156.31,330Z"/><path class="cls-1" d="M173.61,338.13h-7.13l4.23-21.91a44.77,44.77,0,0,1,11-1.28h1.54q8.63,0,7.09,8l-2.95,15.16h-7.13l2.78-14.43c.4-1.91-.39-2.87-2.35-2.87h-1a20,20,0,0,0-2.82.26Z"/><path class="cls-1" d="M199.69,338.13h-3.16L200.8,316a42.06,42.06,0,0,1,8.5-.94h1a8.44,8.44,0,0,1,5,1.24,31.42,31.42,0,0,1,8.19-1.24h.73q4.1,0,5.81,2c1.14,1.35,1.46,3.31,1,5.87l-3,15.16h-3.16l2.91-15a4.77,4.77,0,0,0-.52-3.93q-1-1.32-3.84-1.32h-1.11a22.82,22.82,0,0,0-5.47.68,9,9,0,0,1,0,4.14l-3,15.42h-3.16l2.94-15.25c.34-1.73.21-3-.4-3.8s-1.86-1.19-3.74-1.19h-1.37a39.39,39.39,0,0,0-4.61.34Z"/><path class="cls-1" d="M235.65,330.49l1.49-7.52a9.64,9.64,0,0,1,3.2-5.85,10,10,0,0,1,6.58-2.05h4.18c2.74,0,4.67.68,5.81,2s1.47,3.31,1,5.87l-1.49,7.52a9.61,9.61,0,0,1-3.22,5.85,10.13,10.13,0,0,1-6.6,2.05h-4.19c-2.73,0-4.66-.69-5.78-2.05S235.16,333,235.65,330.49Zm17.63-.17,1.41-7.18a4.81,4.81,0,0,0-.51-3.93c-.68-.88-2-1.32-3.84-1.32h-3.68c-3.61,0-5.75,1.75-6.4,5.25l-1.41,7.18a4.81,4.81,0,0,0,.51,3.93c.68.88,2,1.32,3.84,1.32h3.68C250.49,335.57,252.63,333.82,253.28,330.32Z"/><path class="cls-1" d="M266.05,315.33l4.1,19.6,11.7-19.6h3.29l-13.54,22.8h-4.1l-4.74-22.8Z"/><path class="cls-1" d="M306.66,323l-1,5.21h-16.4l-.43,2.14a4.77,4.77,0,0,0,.52,3.93q1,1.32,3.84,1.32h10l-.42,2.31a59.38,59.38,0,0,1-8.33.51h-2.05c-2.74,0-4.66-.69-5.79-2.05s-1.44-3.32-1-5.85L287.1,323a9.7,9.7,0,0,1,3.21-5.85,10,10,0,0,1,6.58-2.05h3c2.74,0,4.67.68,5.81,2S307.15,320.41,306.66,323Zm-16.44.17-.42,2.22H303l.43-2.22a4.81,4.81,0,0,0-.51-3.93c-.68-.88-2-1.32-3.84-1.32h-2.48C293,317.89,290.88,319.64,290.22,323.14Z"/></svg>