<svg id="Capa_1" data-name="Capa 1" xmlns="http://www.w3.org/2000/svg" viewBox="0 0 429.73 461.84"><defs><style>.cls-1{fill:#e2a622;}</style></defs><title>OnMove</title><path class="cls-1" d="M87.73,261.76,90,249.87q1.41-7.25,6-10.87t12.9-3.62h5.91q8.43,0,11.56,3.62t1.74,10.87l-2.29,11.89q-1.41,7.25-6,10.83t-13,3.59H101q-8.35,0-11.49-3.59T87.73,261.76Zm25.79-.36,2-10.28c.39-2.21.31-3.78-.26-4.69s-1.79-1.37-3.66-1.37h-3.18a5.91,5.91,0,0,0-4.28,1.37,8.62,8.62,0,0,0-2,4.69l-1.84,9.39c-.4,2.17-.31,3.72.25,4.65s1.79,1.41,3.66,1.41h3.18Q112.49,266.57,113.52,261.4Z"/><path class="cls-1" d="M143.45,275.51H131.11l7.32-37.91a77.1,77.1,0,0,1,19.06-2.22h2.66q14.92,0,12.27,13.9l-5.1,26.23H155l4.8-25q1-5-4.06-4.95H154a33.65,33.65,0,0,0-4.88.45Z"/><path class="cls-1" d="M188.58,275.51h-5.47l7.39-38.28a73.51,73.51,0,0,1,14.7-1.62h1.7q5.7,0,8.65,2.14a54.77,54.77,0,0,1,14.18-2.14H231q7.09,0,10,3.51t1.7,10.16l-5.1,26.23h-5.47l5-25.94q.88-4.5-.89-6.8c-1.18-1.52-3.4-2.29-6.65-2.29h-1.92a38.8,38.8,0,0,0-9.46,1.19,15.88,15.88,0,0,1,0,7.16l-5.17,26.68h-5.47l5.1-26.38c.59-3,.36-5.2-.7-6.58s-3.22-2.07-6.47-2.07h-2.36a69.84,69.84,0,0,0-8,.59Z"/><path class="cls-1" d="M250.8,262.28l2.58-13a16.73,16.73,0,0,1,5.54-10.13q4.29-3.54,11.38-3.54h7.25q7.08,0,10.05,3.51t1.69,10.16l-2.58,13a16.62,16.62,0,0,1-5.58,10.13q-4.32,3.54-11.42,3.54h-7.24q-7.1,0-10-3.54T250.8,262.28Zm30.52-.29,2.43-12.42q.88-4.5-.88-6.8c-1.19-1.52-3.4-2.29-6.65-2.29h-6.36q-9.39,0-11.08,9.09L256.34,262q-.88,4.5.88,6.8c1.19,1.52,3.4,2.29,6.66,2.29h6.35Q279.62,271.08,281.32,262Z"/><path class="cls-1" d="M303.41,236.05l7.1,33.92,20.24-33.92h5.69L313,275.51h-7.1l-8.2-39.46Z"/><path class="cls-1" d="M373.69,249.28l-1.78,9H343.54l-.74,3.7q-.89,4.5.88,6.8c1.19,1.52,3.4,2.29,6.65,2.29h17.3l-.74,4a102.45,102.45,0,0,1-14.41.88h-3.55q-7.1,0-10-3.54t-1.66-10.13l2.58-13a16.73,16.73,0,0,1,5.54-10.13q4.29-3.54,11.38-3.54h5.18c4.72,0,8.08,1.17,10.05,3.51S374.52,244.84,373.69,249.28Zm-28.46.29-.73,3.85h22.9l.74-3.85q.89-4.5-.88-6.8c-1.19-1.52-3.4-2.29-6.65-2.29h-4.29Q346.93,240.48,345.23,249.57Z"/></svg>