<svg id="Capa_1" data-name="Capa 1" xmlns="http://www.w3.org/2000/svg" viewBox="0 0 429.73 461.84"><defs><style>.cls-1{fill:#f4fafa;}</style></defs><title>OnMove</title><path class="cls-1" d="M110.93,261.76l2.29-11.89q1.41-7.25,6-10.87t12.89-3.62H138q8.42,0,11.56,3.62t1.74,10.87L149,261.76q-1.41,7.25-6,10.83t-13,3.59h-5.91q-8.35,0-11.49-3.59T110.93,261.76Zm25.79-.36,2-10.28c.39-2.21.3-3.78-.26-4.69s-1.79-1.37-3.66-1.37h-3.18a5.91,5.91,0,0,0-4.28,1.37,8.55,8.55,0,0,0-2,4.69l-1.85,9.39c-.39,2.17-.31,3.72.26,4.65s1.79,1.41,3.66,1.41h3.18Q135.69,266.57,136.72,261.4Z"/><path class="cls-1" d="M166.65,275.51H154.31l7.31-37.91a77.18,77.18,0,0,1,19.07-2.22h2.66q14.93,0,12.26,13.9l-5.09,26.23H178.17l4.81-25q1-5-4.07-4.95h-1.7a33.53,33.53,0,0,0-4.87.45Z"/><path class="cls-1" d="M211.77,275.51H206.3l7.39-38.28a73.68,73.68,0,0,1,14.71-1.62h1.7q5.68,0,8.64,2.14a54.84,54.84,0,0,1,14.19-2.14h1.26q7.1,0,10.05,3.51t1.7,10.16l-5.1,26.23h-5.47l5-25.94q.89-4.5-.89-6.8c-1.18-1.52-3.4-2.29-6.65-2.29h-1.92a38.74,38.74,0,0,0-9.46,1.19,15.88,15.88,0,0,1,0,7.16l-5.17,26.68h-5.47l5.1-26.38c.59-3,.35-5.2-.7-6.58s-3.22-2.07-6.47-2.07H226.4a70,70,0,0,0-8,.59Z"/><path class="cls-1" d="M274,262.28l2.59-13a16.68,16.68,0,0,1,5.54-10.13q4.29-3.54,11.38-3.54h7.24q7.1,0,10.05,3.51t1.7,10.16l-2.58,13a16.62,16.62,0,0,1-5.58,10.13Q300,275.95,292.91,276h-7.24q-7.1,0-10-3.54T274,262.28Zm30.52-.29L307,249.57c.59-3,.3-5.27-.89-6.8s-3.4-2.29-6.65-2.29h-6.35q-9.39,0-11.09,9.09L279.53,262q-.88,4.5.89,6.8c1.18,1.52,3.4,2.29,6.65,2.29h6.36Q302.81,271.08,304.51,262Z"/><path class="cls-1" d="M326.61,236.05,333.7,270,354,236.05h5.69l-23.43,39.46h-7.09l-8.2-39.46Z"/><path class="cls-1" d="M396.88,249.28l-1.77,9H366.73L366,262q-.89,4.5.89,6.8c1.18,1.52,3.4,2.29,6.65,2.29h17.29l-.74,4a102.35,102.35,0,0,1-14.41.88h-3.54q-7.1,0-10-3.54t-1.66-10.13l2.59-13a16.68,16.68,0,0,1,5.54-10.13q4.29-3.54,11.38-3.54h5.17q7.1,0,10.05,3.51T396.88,249.28Zm-28.45.29-.74,3.85H390.6l.74-3.85c.59-3,.3-5.27-.89-6.8s-3.4-2.29-6.65-2.29h-4.28Q370.13,240.48,368.43,249.57Z"/></svg>