<svg id="Capa_1" data-name="Capa 1" xmlns="http://www.w3.org/2000/svg" viewBox="0 0 429.73 461.84"><defs><style>.cls-1{fill:#2d475e;}</style></defs><title>OnMove</title><path class="cls-1" d="M61.33,261.76l2.29-11.89Q65,242.63,69.57,239t12.9-3.62h5.91q8.41,0,11.56,3.62c2.1,2.42,2.67,6,1.74,10.87l-2.29,11.89q-1.41,7.25-6,10.83t-13,3.59H74.56q-8.36,0-11.49-3.59C61,270.2,60.4,266.59,61.33,261.76Zm25.79-.36,2-10.28c.39-2.21.3-3.78-.26-4.69s-1.79-1.37-3.66-1.37H82a5.91,5.91,0,0,0-4.28,1.37,8.62,8.62,0,0,0-2,4.69l-1.85,9.39q-.58,3.25.26,4.65t3.66,1.41H81Q86.09,266.57,87.12,261.4Z"/><path class="cls-1" d="M117.05,275.51H104.71L112,237.6a77.24,77.24,0,0,1,19.07-2.22h2.66q14.92,0,12.27,13.9l-5.1,26.23H128.58l4.8-25c.69-3.3-.67-4.95-4.06-4.95h-1.7a33.53,33.53,0,0,0-4.88.45Z"/><path class="cls-1" d="M162.17,275.51h-5.46l7.39-38.28a73.51,73.51,0,0,1,14.7-1.62h1.7c3.79,0,6.68.71,8.65,2.14a54.77,54.77,0,0,1,14.18-2.14h1.26q7.09,0,10,3.51t1.7,10.16l-5.1,26.23h-5.47l5-25.94q.88-4.5-.89-6.8c-1.18-1.52-3.4-2.29-6.65-2.29h-1.92a38.8,38.8,0,0,0-9.46,1.19,15.88,15.88,0,0,1,0,7.16l-5.17,26.68h-5.47l5.1-26.38c.59-3,.36-5.2-.7-6.58s-3.22-2.07-6.47-2.07h-2.36a69.84,69.84,0,0,0-8,.59Z"/><path class="cls-1" d="M224.4,262.28l2.58-13a16.68,16.68,0,0,1,5.54-10.13q4.29-3.54,11.38-3.54h7.25q7.08,0,10,3.51t1.7,10.16l-2.58,13a16.62,16.62,0,0,1-5.58,10.13q-4.32,3.54-11.42,3.54h-7.24q-7.09,0-10-3.54T224.4,262.28Zm30.51-.29,2.44-12.42c.59-3,.3-5.27-.89-6.8s-3.4-2.29-6.65-2.29h-6.35q-9.39,0-11.09,9.09L229.94,262q-.88,4.5.88,6.8c1.19,1.52,3.4,2.29,6.65,2.29h6.36Q253.21,271.08,254.91,262Z"/><path class="cls-1" d="M277,236.05,284.1,270l20.25-33.92H310l-23.43,39.46h-7.09l-8.2-39.46Z"/><path class="cls-1" d="M347.28,249.28l-1.77,9H317.13l-.73,3.7c-.6,3-.3,5.27.88,6.8s3.4,2.29,6.65,2.29h17.29l-.73,4a102.45,102.45,0,0,1-14.41.88h-3.55q-7.09,0-10-3.54t-1.67-10.13l2.59-13A16.68,16.68,0,0,1,319,239.15q4.29-3.54,11.38-3.54h5.18q7.08,0,10,3.51T347.28,249.28Zm-28.45.29-.73,3.85H341l.74-3.85c.59-3,.3-5.27-.89-6.8s-3.39-2.29-6.64-2.29h-4.29Q320.53,240.48,318.83,249.57Z"/></svg>